<svg width="257" height="257" xmlns="http://www.w3.org/2000/svg" xmlns:xlink="http://www.w3.org/1999/xlink" xml:space="preserve" overflow="hidden"><defs><clipPath id="clip0"><rect x="427" y="167" width="257" height="257"/></clipPath></defs><g clip-path="url(#clip0)" transform="translate(-427 -167)"><path d="M555.5 193.771C499.317 193.771 453.771 239.317 453.771 295.5 453.771 351.683 499.317 397.229 555.5 397.229 611.683 397.229 657.229 351.683 657.229 295.5 657.229 239.317 611.683 193.771 555.5 193.771ZM555.5 391.875C502.273 391.875 459.125 348.726 459.125 295.5 459.125 242.273 502.273 199.125 555.5 199.125 608.726 199.125 651.875 242.273 651.875 295.5 651.815 348.701 608.701 391.815 555.5 391.875Z" stroke="#FFC000" stroke-width="1.33333" fill="#FFFFFF"/><path d="M555.5 324.948C535.184 324.921 515.965 334.16 503.297 350.043 502.371 351.196 502.556 352.881 503.709 353.807 504.862 354.732 506.548 354.548 507.473 353.395 528.686 326.867 567.387 322.559 593.914 343.771 597.468 346.613 600.696 349.841 603.538 353.395 604.463 354.548 606.148 354.732 607.302 353.807 608.455 352.881 608.639 351.196 607.714 350.043 595.044 334.157 575.82 324.917 555.5 324.948Z" stroke="#FFC000" stroke-width="1.33333" fill="#FFFFFF"/><path d="M528.729 279.47C528.729 270.599 521.538 263.407 512.667 263.407 503.796 263.407 496.604 270.599 496.604 279.47 496.604 288.341 503.796 295.532 512.667 295.532 521.538 295.532 528.729 288.341 528.729 279.47ZM501.958 279.47C501.958 273.556 506.753 268.761 512.667 268.761 518.581 268.761 523.375 273.556 523.375 279.47 523.375 285.384 518.581 290.178 512.667 290.178 506.756 290.169 501.967 285.38 501.958 279.47Z" stroke="#FFC000" stroke-width="1.33333" fill="#FFFFFF"/><path d="M598.333 263.402C589.462 263.402 582.271 270.593 582.271 279.464 582.271 288.335 589.462 295.527 598.333 295.527 607.204 295.527 614.396 288.335 614.396 279.464 614.396 270.593 607.204 263.402 598.333 263.402ZM598.333 290.173C592.419 290.173 587.625 285.378 587.625 279.464 587.625 273.55 592.419 268.756 598.333 268.756 604.247 268.756 609.042 273.55 609.042 279.464 609.046 285.378 604.255 290.176 598.341 290.181 598.339 290.181 598.336 290.181 598.333 290.181Z" stroke="#FFC000" stroke-width="1.33333" fill="#FFFFFF"/><path d="M504.635 316.959C504.635 321.395 508.231 324.991 512.667 324.991 517.102 324.991 520.698 321.395 520.698 316.959 520.698 312.408 512.667 300.897 512.667 300.897 512.667 300.897 504.635 312.406 504.635 316.959ZM515.344 316.959C515.364 318.438 514.183 319.653 512.704 319.674 511.226 319.695 510.01 318.513 509.99 317.034 510.581 314.893 511.483 312.849 512.667 310.968 513.842 312.826 514.744 314.844 515.344 316.959Z" stroke="#FFC000" stroke-width="1.33333" fill="#FFFFFF"/></g></svg>